name Run_300 01_newCOP3_v24.mot
datacolumns 19
datarows 84
range 4.002083 4.088542
DataType=double
version=3
OpenSimVersion=4.3-2021-08-27-4bc7ad9
endheader
time	R_ground_force_vx	R_ground_force_vy	R_ground_force_vz	R_ground_force_px	R_ground_force_py	R_ground_force_pz	L_ground_force_vx	L_ground_force_vy	L_ground_force_vz	L_ground_force_px	L_ground_force_py	L_ground_force_pz	R_ground_torque_x	R_ground_torque_y	R_ground_torque_z	L_ground_torque_x	L_ground_torque_y	L_ground_torque_z
4.002083	0	0	0	0	0	0	18.298361	1574.189331	55.377399	0.7269060000000001	0	-0.417281	0	0	0	0	-3.66112	0
4.003125	0	0	0	0	0	0	21.876776	1568.097534	55.467094	0.72464	0	-0.417438	0	0	0	0	-3.672449	0
4.004167	0	0	0	0	0	0	25.421209	1561.573975	55.519623	0.7223810000000001	0	-0.417593	0	0	0	0	-3.67827	0
4.005208	0	0	0	0	0	0	28.938177	1554.635376	55.533981	0.720127	0	-0.417745	0	0	0	0	-3.678541	0
4.00625	0	0	0	0	0	0	32.434273	1547.299316	55.509029	0.717876	0	-0.417892	0	0	0	0	-3.673231	0
4.007292	0	0	0	0	0	0	35.915901	1539.582886	55.443478	0.715626	0	-0.418033	0	0	0	0	-3.662317	0
4.008333	0	0	0	0	0	0	39.389103	1531.50293	55.335892	0.713376	0	-0.418169	0	0	0	0	-3.645786	0
4.009375	0	0	0	0	0	0	42.859383	1523.075684	55.184689	0.711124	0	-0.418297	0	0	0	0	-3.623633	0
4.010417	0	0	0	0	0	0	46.331608	1514.316406	54.988148	0.708869	0	-0.418417	0	0	0	0	-3.595867	0
4.011458	0	0	0	0	0	0	49.809959	1505.239014	54.744469	0.706608	0	-0.418529	0	0	0	0	-3.562506	0
4.0125	0	0	0	0	0	0	53.297909	1495.856079	54.451794	0.704342	0	-0.418632	0	0	0	0	-3.523578	0
4.013542	0	0	0	0	0	0	56.798222	1486.178833	54.108257	0.702068	0	-0.418726	0	0	0	0	-3.479125	0
4.014583	0	0	0	0	0	0	60.312965	1476.216797	53.712051	0.699785	0	-0.418811	0	0	0	0	-3.4292	0
4.015625	0	0	0	0	0	0	63.843525	1465.977905	53.261467	0.697492	0	-0.418887	0	0	0	0	-3.373869	0
4.016667	0	0	0	0	0	0	67.390587	1455.46875	52.754978	0.695187	0	-0.418955	0	0	0	0	-3.313211	0
4.017708	0	0	0	0	0	0	70.95414	1444.694336	52.191273	0.692869	0	-0.419013	0	0	0	0	-3.247319	0
4.01875	0	0	0	0	0	0	74.533394	1433.658569	51.569321	0.690536	0	-0.419064	0	0	0	0	-3.176296	0
4.019792	0	0	0	0	0	0	78.12674	1422.364136	50.88842	0.688188	0	-0.419106	0	0	0	0	-3.100261	0
4.020833	0	0	0	0	0	0	81.73168200000001	1410.81311	50.148232	0.685823	0	-0.41914	0	0	0	0	-3.019346	0
4.021875	0	0	0	0	0	0	85.344734	1399.006714	49.348824	0.68344	0	-0.419167	0	0	0	0	-2.933698	0
4.022917	0	0	0	0	0	0	88.96138000000001	1386.945923	48.490673	0.6810389999999999	0	-0.419188	0	0	0	0	-2.843474	0
4.023958	0	0	0	0	0	0	92.57605	1374.63147	47.574707	0.678619	0	-0.419201	0	0	0	0	-2.748846	0
4.025	0	0	0	0	0	0	96.182091	1362.064209	46.602268	0.67618	0	-0.419209	0	0	0	0	-2.65	0
4.026042	0	0	0	0	0	0	99.771889	1349.245117	45.57515	0.673722	0	-0.419211	0	0	0	0	-2.547132	0
4.027083	0	0	0	0	0	0	103.336922	1336.175903	44.495537	0.671245	0	-0.419207	0	0	0	0	-2.440452	0
4.028125	0	0	0	0	0	0	106.867996	1322.858521	43.366013	0.668752	0	-0.419198	0	0	0	0	-2.330181	0
4.029167	0	0	0	0	0	0	110.355408	1309.295776	42.189507	0.666242	0	-0.419184	0	0	0	0	-2.21655	0
4.030208	0	0	0	0	0	0	113.789253	1295.491211	40.969254	0.663717	0	-0.419165	0	0	0	0	-2.099803	0
4.03125	0	0	0	0	0	0	117.159676	1281.449219	39.708759	0.661178	0	-0.419141	0	0	0	0	-1.980191	0
4.032292	0	0	0	0	0	0	120.457176	1267.174805	38.411736	0.658629	0	-0.419112	0	0	0	0	-1.857974	0
4.033333	0	0	0	0	0	0	123.672813	1252.673828	37.082047	0.656069	0	-0.419078	0	0	0	0	-1.733422	0
4.034375	0	0	0	0	0	0	126.798439	1237.952881	35.723656	0.653502	0	-0.419039	0	0	0	0	-1.60681	0
4.035417	0	0	0	0	0	0	129.826843	1223.019165	34.340572	0.650929	0	-0.418994	0	0	0	0	-1.478421	0
4.036458	0	0	0	0	0	0	132.751785	1207.880249	32.936775	0.648353	0	-0.418944	0	0	0	0	-1.34854	0
4.0375	0	0	0	0	0	0	135.568054	1192.544067	31.516178	0.645775	0	-0.418887	0	0	0	0	-1.217461	0
4.038542	0	0	0	0	0	0	138.271301	1177.019043	30.082567	0.643196	0	-0.418823	0	0	0	0	-1.085478	0
4.039583	0	0	0	0	0	0	140.857941	1161.313477	28.639555	0.64062	0	-0.418752	0	0	0	0	-0.952888	0
4.040625	0	0	0	0	0	0	143.324982	1145.435303	27.190536	0.6380479999999999	0	-0.418673	0	0	0	0	-0.81999	0
4.041667	0	0	0	0	0	0	145.6698	1129.392334	25.738653	0.635481	0	-0.418586	0	0	0	0	-0.687083	0
4.042708	0	0	0	0	0	0	147.889969	1113.192017	24.28676	0.63292	0	-0.41849	0	0	0	0	-0.554466	0
4.04375	0	0	0	0	0	0	149.983124	1096.841187	22.83741	0.630369	0	-0.418384	0	0	0	0	-0.422437	0
4.044792	0	0	0	0	0	0	151.946793	1080.345825	21.392836	0.627827	0	-0.418269	0	0	0	0	-0.29129	0
4.045833	0	0	0	0	0	0	153.778473	1063.71167	19.954945	0.625296	0	-0.418145	0	0	0	0	-0.161319	0
4.046875	0	0	0	0	0	0	155.475586	1046.943726	18.525314	0.622777	0	-0.418011	0	0	0	0	-0.032812	0
4.047917	0	0	0	0	0	0	157.035614	1030.046509	17.105213	0.620272	0	-0.417868	0	0	0	-0	0.093947	-0
4.048958	0	0	0	0	0	0	158.456329	1013.024536	15.695607	0.617779	0	-0.417716	0	0	0	-0	0.218678	-0
4.05	0	0	0	0	0	0	159.735931	995.882324	14.29719	0.6153	0	-0.417556	0	0	0	-0	0.341108	-0
4.051042	0	0	0	0	0	0	160.873291	978.624512	12.910404	0.612834	0	-0.417388	0	0	0	-0	0.46097	-0
4.052083	0	0	0	0	0	0	161.868179	961.256409	11.535487	0.610382	0	-0.417212	0	0	0	-0	0.578003	-0
4.053125	0	0	0	0	0	0	162.721436	943.783997	10.172497	0.607943	0	-0.417029	0	0	0	-0	0.691954	-0
4.054167	0	0	0	0	0	0	163.435013	926.214172	8.82136	0.6055160000000001	0	-0.416841	0	0	0	-0	0.802578	-0
4.055208	0	0	0	0	0	0	164.012054	908.554993	7.481914	0.6031	0	-0.416646	0	0	0	-0	0.909636	-0
4.05625	0	0	0	0	0	0	164.456787	890.81543	6.153945	0.600695	0	-0.416446	0	0	0	-0	1.012901	-0
4.057292	0	0	0	0	0	0	164.774338	873.005554	4.837237	0.598299	0	-0.416241	0	0	0	-0	1.112152	-0
4.058333	0	0	0	0	0	0	164.97052	855.1365970000001	3.531606	0.595912	0	-0.416031	0	0	0	-0	1.207177	-0
4.059375	0	0	0	0	0	0	165.051529	837.220398	2.236939	0.593531	0	-0.415816	0	0	0	-0	1.297774	-0
4.060417	0	0	0	0	0	0	165.023514	819.269409	0.953232	0.591157	0	-0.415596	0	0	0	-0	1.383752	-0
4.061458	0	0	0	0	0	0	164.892395	801.296692	-0.319385	0.588789	0	-0.41537	0	0	0	-0	1.464927	-0
4.0625	0	0	0	0	0	0	164.663361	783.315247	-1.580622	0.586426	0	-0.415138	0	0	0	-0	1.541127	-0
4.063542	0	0	0	0	0	0	164.340759	765.338196	-2.830007	0.584067	0	-0.414901	0	0	0	-0	1.612188	-0
4.064583	0	0	0	0	0	0	163.927826	747.3783570000001	-4.066877	0.581714	0	-0.414657	0	0	0	-0	1.67796	-0
4.065625	0	0	0	0	0	0	163.426682	729.4480589999999	-5.290365	0.579366	0	-0.414407	0	0	0	-0	1.7383	-0
4.066667	0	0	0	0	0	0	162.838257	711.559265	-6.499397	0.577024	0	-0.41415	0	0	0	-0	1.793077	-0
4.067708	0	0	0	0	0	0	162.162476	693.723267	-7.692701	0.574689	0	-0.413886	0	0	0	-0	1.84217	-0
4.06875	0	0	0	0	0	0	161.398407	675.950684	-8.868805	0.572363	0	-0.413616	0	0	0	-0	1.885471	-0
4.069792	0	0	0	0	0	0	160.544571	658.251831	-10.026057	0.570047	0	-0.413339	0	0	0	-0	1.922882	-0
4.070833	0	0	0	0	0	0	159.599182	640.636353	-11.162636	0.567743	0	-0.413056	0	0	0	-0	1.954317	-0
4.071875	0	0	0	0	0	0	158.560471	623.11377	-12.276575	0.565451	0	-0.412767	0	0	0	-0	1.9797	-0
4.072917	0	0	0	0	0	0	157.426926	605.6934199999999	-13.365781	0.563173	0	-0.412474	0	0	0	-0	1.998968	-0
4.073958	0	0	0	0	0	0	156.197586	588.3847050000001	-14.428058	0.560911	0	-0.412176	0	0	0	-0	2.012072	-0
4.075	0	0	0	0	0	0	154.872101	571.197266	-15.461135	0.558664	0	-0.411875	0	0	0	-0	2.01897	-0
4.076042	0	0	0	0	0	0	153.450928	554.141113	-16.462694	0.556433	0	-0.411571	0	0	0	-0	2.019639	-0
4.077083	0	0	0	0	0	0	151.935226	537.226807	-17.430389	0.554217	0	-0.411265	0	0	0	-0	2.014062	-0
4.078125	0	0	0	0	0	0	150.326904	520.4653929999999	-18.361883	0.552017	0	-0.410957	0	0	0	-0	2.002239	-0
4.079167	0	0	0	0	0	0	148.628448	503.86853	-19.25486	0.549832	0	-0.410648	0	0	0	-0	1.984182	-0
4.080208	0	0	0	0	0	0	146.842773	487.448456	-20.107061	0.547661	0	-0.410339	0	0	0	-0	1.959915	-0
4.08125	0	0	0	0	0	0	144.973129	471.217834	-20.916296	0.545503	0	-0.410029	0	0	0	-0	1.929474	-0
4.082292	0	0	0	0	0	0	143.022949	455.189575	-21.680473	0.543357	0	-0.40972	0	0	0	-0	1.892912	-0
4.083333	0	0	0	0	0	0	140.995728	439.376862	-22.397608	0.541222	0	-0.40941	0	0	0	-0	1.850291	-0
4.084375	0	0	0	0	0	0	138.894943	423.792786	-23.065851	0.539096	0	-0.409099	0	0	0	-0	1.80169	-0
4.085417	0	0	0	0	0	0	136.724136	408.450226	-23.683491	0.53698	0	-0.408788	0	0	0	-0	1.747196	-0
4.086458	0	0	0	0	0	0	134.486847	393.361664	-24.248978	0.534872	0	-0.408476	0	0	0	-0	1.686916	-0
4.0875	0	0	0	0	0	0	132.186722	378.539154	-24.760927	0.532772	0	-0.408161	0	0	0	-0	1.620964	-0
4.088542	0	0	0	0	0	0	129.827682	363.993958	-25.218138	0.53068	0	-0.407843	0	0	0	-0	1.54947	-0
